<svg width="22" height="23" viewBox="0 0 22 23" fill="none" xmlns="http://www.w3.org/2000/svg">
<path d="M0.000366211 5.42558C0.000366211 3.91113 0.000366129 3.15391 0.244206 2.55533C0.579441 1.7324 1.2324 1.07944 2.05533 0.744206C2.65391 0.500366 3.41113 0.500366 4.92558 0.500366C6.44001 0.500366 7.19724 0.500366 7.79581 0.744206C8.61875 1.07944 9.27172 1.7324 9.60699 2.55533C9.85074 3.15391 9.85074 3.91113 9.85074 5.42558C9.85074 6.94001 9.85074 7.69724 9.60699 8.29581C9.27172 9.11875 8.61875 9.77172 7.79581 10.107C7.19724 10.3507 6.44001 10.3507 4.92558 10.3507C3.41113 10.3507 2.65391 10.3507 2.05533 10.107C1.2324 9.77172 0.579441 9.11875 0.244206 8.29581C0.000366129 7.69724 0.000366211 6.94001 0.000366211 5.42558Z" fill="#B1B1B1"/>
<path d="M0.000610352 17.5744C0.000610352 16.0599 0.000610277 15.3027 0.24445 14.7041C0.579685 13.8812 1.23264 13.2282 2.05557 12.893C2.65416 12.6492 3.41137 12.6492 4.92582 12.6492C6.44026 12.6492 7.19748 12.6492 7.79606 12.893C8.61899 13.2282 9.27197 13.8812 9.60723 14.7041C9.85098 15.3027 9.85098 16.0599 9.85098 17.5744C9.85098 19.0888 9.85098 19.846 9.60723 20.4446C9.27197 21.2676 8.61899 21.9205 7.79606 22.2557C7.19748 22.4995 6.44026 22.4995 4.92582 22.4995C3.41137 22.4995 2.65416 22.4995 2.05557 22.2557C1.23264 21.9205 0.579685 21.2676 0.24445 20.4446C0.000610277 19.846 0.000610352 19.0888 0.000610352 17.5744Z" fill="#B1B1B1"/>
<path d="M12.1495 17.5744C12.1495 16.0599 12.1495 15.3027 12.3934 14.7041C12.7287 13.8812 13.3816 13.2282 14.2045 12.893C14.8031 12.6492 15.5603 12.6492 17.0747 12.6492C18.5893 12.6492 19.3465 12.6492 19.945 12.893C20.768 13.2282 21.4209 13.8812 21.7562 14.7041C22 15.3027 22 16.0599 22 17.5744C22 19.0888 22 19.846 21.7562 20.4446C21.4209 21.2676 20.768 21.9205 19.945 22.2557C19.3465 22.4995 18.5893 22.4995 17.0747 22.4995C15.5603 22.4995 14.8031 22.4995 14.2045 22.2557C13.3816 21.9205 12.7287 21.2676 12.3934 20.4446C12.1495 19.846 12.1495 19.0888 12.1495 17.5744Z" fill="#B1B1B1"/>
<path fill-rule="evenodd" clip-rule="evenodd" d="M16.2498 8.72552C16.2498 9.18113 16.6191 9.55054 17.0748 9.55054C17.5304 9.55054 17.8998 9.18113 17.8998 8.72552V6.25061H20.3747C20.8303 6.25061 21.1997 5.88125 21.1997 5.42564C21.1997 4.97002 20.8303 4.60067 20.3747 4.60067H17.8998V2.12575C17.8998 1.67014 17.5304 1.30078 17.0748 1.30078C16.6191 1.30078 16.2498 1.67014 16.2498 2.12575V4.60067H13.7749C13.3192 4.60067 12.95 4.97002 12.95 5.42564C12.95 5.88125 13.3192 6.25061 13.7749 6.25061H16.2498V8.72552Z" fill="#B1B1B1"/>
</svg>
