<svg width="31" height="34" viewBox="0 0 31 34" fill="none" xmlns="http://www.w3.org/2000/svg">
<g filter="url(#filter0_d_739_71)">
<path d="M10.6667 13.0017C10.4357 13.0017 10.2021 13.0017 9.96583 13.0017C9.00944 12.9672 8.05615 13.1295 7.16512 13.4787C6.27409 13.828 5.46433 14.3566 4.78611 15.0317L4.59277 15.2573V21.9273H7.87944V18.1412L8.3225 17.6417L8.52388 17.4081C9.57266 16.3307 10.8783 15.5379 12.3181 15.1043C11.5972 14.5558 11.0287 13.832 10.6667 13.0017Z" fill="#B1B1B1"/>
<path d="M26.2462 15.0075C25.5679 14.3323 24.7582 13.8037 23.8671 13.4545C22.9761 13.1053 22.0228 12.9429 21.0664 12.9775C20.7731 12.9783 20.48 12.9944 20.1884 13.0258C19.8195 13.8047 19.2665 14.4821 18.5773 14.9994C20.1143 15.4246 21.5066 16.26 22.605 17.4161L22.8064 17.6416L23.2414 18.1411V21.9352H26.4153V15.233L26.2462 15.0075Z" fill="#B1B1B1"/>
<path d="M9.94165 11.4308C10.0303 11.4308 10.1028 11.4308 10.1914 11.4308C10.0753 10.4345 10.2502 9.42591 10.6947 8.5268C11.1393 7.62769 11.8345 6.87647 12.6966 6.36381C12.3841 5.8864 11.953 5.49833 11.4455 5.2376C10.9379 4.97688 10.3714 4.85243 9.80127 4.87646C9.23117 4.90048 8.67709 5.07215 8.19328 5.37465C7.70947 5.67716 7.31252 6.10012 7.04129 6.60214C6.77006 7.10415 6.63385 7.66799 6.64601 8.23846C6.65817 8.80893 6.81827 9.36646 7.11065 9.85646C7.40302 10.3465 7.81764 10.7521 8.3139 11.0337C8.81016 11.3154 9.37105 11.4633 9.94165 11.463V11.4308Z" fill="#B1B1B1"/>
<path d="M20.6797 10.8267C20.6895 11.0118 20.6895 11.1974 20.6797 11.3825C20.8343 11.407 20.9905 11.4205 21.147 11.4228H21.3C21.8681 11.3925 22.4187 11.2156 22.8981 10.9094C23.3775 10.6032 23.7695 10.178 24.0359 9.6753C24.3022 9.17261 24.4339 8.60952 24.418 8.04084C24.4022 7.47217 24.2393 6.91729 23.9453 6.43024C23.6514 5.94318 23.2363 5.54054 22.7405 5.26151C22.2448 4.98249 21.6852 4.83659 21.1163 4.83802C20.5474 4.83945 19.9886 4.98817 19.4942 5.26968C18.9998 5.5512 18.5868 5.95592 18.2953 6.44445C19.0244 6.92048 19.6239 7.57006 20.0401 8.3349C20.4562 9.09975 20.676 9.95594 20.6797 10.8267Z" fill="#B1B1B1"/>
<path d="M15.3953 14.4356C17.384 14.4356 18.9961 12.8234 18.9961 10.8347C18.9961 8.84604 17.384 7.23389 15.3953 7.23389C13.4066 7.23389 11.7944 8.84604 11.7944 10.8347C11.7944 12.8234 13.4066 14.4356 15.3953 14.4356Z" fill="#B1B1B1"/>
<path d="M15.5886 16.3528C14.5365 16.3103 13.4868 16.4811 12.5025 16.8549C11.5182 17.2287 10.6197 17.7977 9.86106 18.5278L9.65967 18.7534V23.8525C9.66281 24.0186 9.69865 24.1825 9.76513 24.3347C9.83161 24.487 9.92743 24.6246 10.0471 24.7398C10.1668 24.855 10.308 24.9455 10.4627 25.0061C10.6174 25.0667 10.7825 25.0963 10.9486 25.0931H20.2044C20.3705 25.0963 20.5356 25.0667 20.6903 25.0061C20.8449 24.9455 20.9861 24.855 21.1058 24.7398C21.2255 24.6246 21.3213 24.487 21.3878 24.3347C21.4543 24.1825 21.4901 24.0186 21.4933 23.8525V18.7695L21.2999 18.5278C20.5462 17.7955 19.6508 17.2248 18.6687 16.8508C17.6866 16.4768 16.6385 16.3074 15.5886 16.3528Z" fill="#B1B1B1"/>
</g>
<defs>
<filter id="filter0_d_739_71" x="0.592773" y="4.83801" width="29.8225" height="28.2552" filterUnits="userSpaceOnUse" color-interpolation-filters="sRGB">
<feFlood flood-opacity="0" result="BackgroundImageFix"/>
<feColorMatrix in="SourceAlpha" type="matrix" values="0 0 0 0 0 0 0 0 0 0 0 0 0 0 0 0 0 0 127 0" result="hardAlpha"/>
<feOffset dy="4"/>
<feGaussianBlur stdDeviation="2"/>
<feComposite in2="hardAlpha" operator="out"/>
<feColorMatrix type="matrix" values="0 0 0 0 0 0 0 0 0 0 0 0 0 0 0 0 0 0 0.25 0"/>
<feBlend mode="normal" in2="BackgroundImageFix" result="effect1_dropShadow_739_71"/>
<feBlend mode="normal" in="SourceGraphic" in2="effect1_dropShadow_739_71" result="shape"/>
</filter>
</defs>
</svg>
