<svg width="21" height="25" viewBox="0 0 21 25" fill="none" xmlns="http://www.w3.org/2000/svg">
<path d="M17.9 0H2.90002C2.23698 0 1.6011 0.263392 1.13226 0.732233C0.663416 1.20107 0.400024 1.83696 0.400024 2.5V25L4.15002 21.25L6.65002 25L10.4 21.25L14.15 25L16.65 21.25L20.4 25V2.5C20.4 1.83696 20.1366 1.20107 19.6678 0.732233C19.1989 0.263392 18.5631 0 17.9 0ZM10.4 17.5H5.40002C5.0685 17.5 4.75056 17.3683 4.51614 17.1339C4.28172 16.8995 4.15002 16.5815 4.15002 16.25C4.15002 15.9185 4.28172 15.6005 4.51614 15.3661C4.75056 15.1317 5.0685 15 5.40002 15H10.4C10.7315 15 11.0495 15.1317 11.2839 15.3661C11.5183 15.6005 11.65 15.9185 11.65 16.25C11.65 16.5815 11.5183 16.8995 11.2839 17.1339C11.0495 17.3683 10.7315 17.5 10.4 17.5ZM10.4 12.5H5.40002C5.0685 12.5 4.75056 12.3683 4.51614 12.1339C4.28172 11.8995 4.15002 11.5815 4.15002 11.25C4.15002 10.9185 4.28172 10.6005 4.51614 10.3661C4.75056 10.1317 5.0685 10 5.40002 10H10.4C10.7315 10 11.0495 10.1317 11.2839 10.3661C11.5183 10.6005 11.65 10.9185 11.65 11.25C11.65 11.5815 11.5183 11.8995 11.2839 12.1339C11.0495 12.3683 10.7315 12.5 10.4 12.5ZM15.4 17.5H14.15C13.8185 17.5 13.5006 17.3683 13.2661 17.1339C13.0317 16.8995 12.9 16.5815 12.9 16.25C12.9 15.9185 13.0317 15.6005 13.2661 15.3661C13.5006 15.1317 13.8185 15 14.15 15H15.4C15.7315 15 16.0495 15.1317 16.2839 15.3661C16.5183 15.6005 16.65 15.9185 16.65 16.25C16.65 16.5815 16.5183 16.8995 16.2839 17.1339C16.0495 17.3683 15.7315 17.5 15.4 17.5ZM15.4 12.5H14.15C13.8185 12.5 13.5006 12.3683 13.2661 12.1339C13.0317 11.8995 12.9 11.5815 12.9 11.25C12.9 10.9185 13.0317 10.6005 13.2661 10.3661C13.5006 10.1317 13.8185 10 14.15 10H15.4C15.7315 10 16.0495 10.1317 16.2839 10.3661C16.5183 10.6005 16.65 10.9185 16.65 11.25C16.65 11.5815 16.5183 11.8995 16.2839 12.1339C16.0495 12.3683 15.7315 12.5 15.4 12.5ZM15.4 6.25H5.40002C5.0685 6.25 4.75056 6.1183 4.51614 5.88388C4.28172 5.64946 4.15002 5.33152 4.15002 5C4.15002 4.66848 4.28172 4.35054 4.51614 4.11612C4.75056 3.8817 5.0685 3.75 5.40002 3.75H15.4C15.7315 3.75 16.0495 3.8817 16.2839 4.11612C16.5183 4.35054 16.65 4.66848 16.65 5C16.65 5.33152 16.5183 5.64946 16.2839 5.88388C16.0495 6.1183 15.7315 6.25 15.4 6.25Z" fill="#B1B1B1"/>
</svg>
