<svg width="22" height="23" viewBox="0 0 22 23" fill="none" xmlns="http://www.w3.org/2000/svg">
<path d="M10.0836 15.9684C10.1746 15.9677 10.2627 16.0004 10.3311 16.0604C10.3996 16.1204 10.4436 16.2035 10.4548 16.2938V21.5736C10.4552 21.8609 10.3449 22.1374 10.147 22.3456C9.94899 22.5538 9.67848 22.6778 9.39152 22.6919H1.86588C1.58189 22.6915 1.30862 22.5834 1.10111 22.3895C0.893609 22.1956 0.767284 21.9303 0.747578 21.647V16.3442C0.746882 16.2532 0.779643 16.1651 0.839635 16.0966C0.899627 16.0282 0.98267 15.9842 1.07299 15.9729H10.0836V15.9684ZM20.9046 15.9684C20.9953 15.9686 21.0829 16.0017 21.1511 16.0616C21.2193 16.1214 21.2636 16.2038 21.2758 16.2938V21.5736C21.2761 21.8617 21.1652 22.1388 20.9663 22.3471C20.7673 22.5554 20.4957 22.6789 20.2079 22.6919H12.6823C12.3987 22.6914 12.126 22.5832 11.9193 22.3892C11.7125 22.1952 11.5871 21.9299 11.5685 21.647V16.3442C11.5679 16.2532 11.6006 16.1651 11.6606 16.0966C11.7206 16.0282 11.8036 15.9842 11.894 15.9729H20.8816L20.9046 15.9684ZM7.19158 17.5129L7.15033 17.545L5.04205 19.8641L4.07499 18.9474C4.0279 18.9006 3.9659 18.8718 3.89976 18.8659C3.83361 18.8601 3.76751 18.8776 3.71292 18.9154L3.67625 18.9474L3.27751 19.3049C3.25326 19.3236 3.2331 19.3471 3.21826 19.3739C3.20341 19.4007 3.1942 19.4302 3.1912 19.4607C3.18819 19.4912 3.19146 19.522 3.20078 19.5511C3.21011 19.5803 3.2253 19.6073 3.24543 19.6303L3.27751 19.667L4.65248 20.9641C4.7588 21.0689 4.90188 21.1281 5.05122 21.1291C5.12556 21.1312 5.19952 21.1177 5.26825 21.0892C5.33697 21.0608 5.3989 21.0181 5.44996 20.9641L7.97989 18.2875C8.01777 18.2419 8.04072 18.1858 8.04564 18.1268C8.05056 18.0678 8.03721 18.0087 8.00739 17.9575L7.97989 17.9254L7.58115 17.5679C7.53656 17.5093 7.47063 17.4706 7.39768 17.4603C7.32473 17.45 7.25066 17.4689 7.19158 17.5129ZM18.0125 17.5129L17.9713 17.545L15.8355 19.8641L14.8685 18.9474C14.8221 18.901 14.7609 18.8723 14.6955 18.8665C14.6302 18.8606 14.5648 18.8779 14.511 18.9154L14.4697 18.9474L14.071 19.3049C14.0471 19.324 14.0273 19.3477 14.0129 19.3747C13.9984 19.4016 13.9897 19.4312 13.9871 19.4617C13.9845 19.4922 13.9882 19.5229 13.9979 19.5518C14.0076 19.5808 14.0231 19.6076 14.0435 19.6303L14.071 19.667L15.4459 20.9641C15.5523 21.0689 15.6953 21.1281 15.8447 21.1291C15.9191 21.1315 15.9931 21.1181 16.0619 21.0896C16.1307 21.0612 16.1925 21.0184 16.2434 20.9641L18.7917 18.2645C18.8242 18.2157 18.8416 18.1583 18.8416 18.0996C18.8416 18.0408 18.8242 17.9834 18.7917 17.9346V17.9025L18.393 17.545C18.3454 17.4924 18.2797 17.4599 18.2091 17.4539C18.1385 17.448 18.0682 17.469 18.0125 17.5129ZM9.41444 12.233C9.68787 12.2433 9.94724 12.3569 10.1403 12.5508C10.3334 12.7447 10.4457 13.0045 10.4548 13.278V14.4742C10.4563 14.5619 10.4268 14.6472 10.3714 14.7151C10.3161 14.7831 10.2385 14.8293 10.1523 14.8455H0.348839C0.261636 14.8437 0.178091 14.8101 0.113936 14.751C0.0497812 14.6919 0.00944201 14.6114 0.000514391 14.5246V13.3559C-0.00793612 13.0807 0.0879939 12.8125 0.269057 12.6051C0.45012 12.3977 0.702922 12.2664 0.976739 12.2376H9.41444V12.233ZM20.955 12.233C21.2292 12.2422 21.4897 12.3552 21.6837 12.5492C21.8778 12.7433 21.9908 13.0038 21.9999 13.278V14.4742C22.0015 14.5619 21.9719 14.6472 21.9166 14.7151C21.8612 14.7831 21.7836 14.8293 21.6975 14.8455H11.8894C11.8023 14.8425 11.7192 14.8077 11.6559 14.7478C11.5926 14.6879 11.5534 14.6069 11.5456 14.5201V13.3559C11.5372 13.0807 11.6331 12.8125 11.8142 12.6051C11.9952 12.3977 12.248 12.2664 12.5219 12.2376H20.955V12.233ZM15.4551 4.44157C15.5453 4.442 15.6323 4.47526 15.6998 4.53515C15.7673 4.59504 15.8106 4.67745 15.8218 4.76698V10.0285C15.8224 10.3128 15.7147 10.5867 15.5206 10.7944C15.3265 11.0022 15.0605 11.1282 14.7768 11.1468H7.27408C6.98966 11.1452 6.71637 11.0361 6.50898 10.8415C6.30159 10.6468 6.17542 10.381 6.15577 10.0973V4.8174C6.1562 4.72718 6.18946 4.6402 6.24935 4.57272C6.30924 4.50524 6.39165 4.46188 6.48118 4.45074H15.4734L15.4551 4.44157ZM12.5814 5.98612L12.5448 6.0182L10.409 8.33731L9.44194 7.42066C9.39559 7.37421 9.33438 7.34555 9.26902 7.33968C9.20366 7.33381 9.13832 7.35113 9.08444 7.38858L9.0432 7.42066L8.64446 7.77815C8.62075 7.79725 8.60109 7.82088 8.58661 7.84766C8.57214 7.87444 8.56315 7.90384 8.56016 7.93413C8.55717 7.96442 8.56025 7.99501 8.56922 8.0241C8.57818 8.05319 8.59285 8.0802 8.61237 8.10356L8.64446 8.14023L10.0194 9.43269C10.0713 9.48607 10.1332 9.52856 10.2017 9.55768C10.2702 9.5868 10.3438 9.60196 10.4182 9.60227C10.4929 9.60448 10.5673 9.59046 10.6361 9.56119C10.705 9.53191 10.7666 9.48808 10.8169 9.43269L13.3514 6.76068C13.3874 6.7141 13.4088 6.65789 13.4129 6.59916C13.417 6.54043 13.4035 6.4818 13.3743 6.43069L13.3514 6.39861L12.9527 6.04112C12.9108 5.99073 12.8528 5.95636 12.7885 5.94383C12.7242 5.9313 12.6575 5.94138 12.5998 5.97237L12.5814 5.98612ZM15.4734 0.692505C15.757 0.693057 16.0297 0.801279 16.2365 0.995276C16.4432 1.18927 16.5686 1.45456 16.5872 1.73748V2.9337C16.5859 3.02417 16.5525 3.11123 16.4929 3.17927C16.4332 3.24731 16.3513 3.29186 16.2618 3.30494H5.78453C5.69421 3.30577 5.60669 3.27365 5.53835 3.2146C5.47002 3.15554 5.42555 3.0736 5.41329 2.98411V1.81081C5.4126 1.52723 5.51967 1.25399 5.71282 1.04637C5.90598 0.838749 6.17079 0.712261 6.45368 0.692505H15.4734Z" fill="#B1B1B1"/>
</svg>
