<svg width="28" height="27" viewBox="0 0 28 27" fill="none" xmlns="http://www.w3.org/2000/svg">
<path d="M4.59266 23.6251H7.37603C7.77239 23.6251 8.0937 23.3037 8.0937 22.9074V16.6163C8.0937 16.22 7.77233 15.8987 7.37603 15.8987H4.59266C4.19631 15.8987 3.875 16.22 3.875 16.6163V22.9074C3.875 23.3037 4.19636 23.6251 4.59266 23.6251Z" fill="#B1B1B1"/>
<path d="M10.9208 23.6251H13.7042C14.1005 23.6251 14.4218 23.3037 14.4218 22.9074V12.3976C14.4218 12.0012 14.1005 11.6799 13.7042 11.6799H10.9208C10.5244 11.6799 10.2031 12.0013 10.2031 12.3976V22.9074C10.2031 23.3037 10.5245 23.6251 10.9208 23.6251Z" fill="#B1B1B1"/>
<path d="M17.2489 23.6251H20.0323C20.4286 23.6251 20.7499 23.3037 20.7499 22.9074V7.33509C20.7499 6.93874 20.4286 6.61743 20.0323 6.61743H17.2489C16.8526 6.61743 16.5312 6.93879 16.5312 7.33509V22.9074C16.5312 23.3037 16.8526 23.6251 17.2489 23.6251Z" fill="#B1B1B1"/>
<path d="M23.577 23.6251H26.3604C26.7568 23.6251 27.0781 23.3037 27.0781 22.9074V2.27259C27.0781 1.87624 26.7567 1.55493 26.3604 1.55493H23.577C23.1807 1.55493 22.8594 1.8763 22.8594 2.27259V22.9074C22.8594 23.3037 23.1807 23.6251 23.577 23.6251Z" fill="#B1B1B1"/>
<path d="M26.7823 25.418H2.90516C2.50886 25.418 2.1875 25.0966 2.1875 24.7003V0.717662C2.1875 0.321363 1.86614 0 1.46984 0H1.21771C0.821363 0 0.5 0.321363 0.5 0.717662V26.2823C0.5 26.6786 0.821363 27 1.21766 27H26.7823C27.1786 27 27.4999 26.6786 27.4999 26.2823V26.1357C27.5 25.7393 27.1786 25.418 26.7823 25.418Z" fill="#B1B1B1"/>
</svg>
