<svg width="22" height="22" viewBox="0 0 22 22" fill="none" xmlns="http://www.w3.org/2000/svg">
<path d="M15.3267 3.44664L18.5901 6.70998C19.3234 7.40664 19.3234 8.57998 18.5901 9.27665L10.0834 17.7467V10.01V6.08664L12.7234 3.40997C13.42 2.71331 14.63 2.71331 15.3267 3.44664Z" fill="#B1B1B1"/>
<path d="M6.41668 0H1.83334C0.806668 0 0 0.806668 0 1.83334V17.8934C0 20.1667 1.83334 22 4.10667 22C6.38001 22 8.21335 20.1667 8.21335 17.8934V1.83334C8.25001 0.806668 7.40668 0 6.41668 0ZM4.10667 19.7267C3.08 19.7267 2.27334 18.92 2.27334 17.8934C2.27334 16.8667 3.08 16.06 4.10667 16.06C5.13334 16.06 5.94001 16.8667 5.94001 17.8934C5.94001 18.92 5.13334 19.7267 4.10667 19.7267Z" fill="#B1B1B1"/>
<path d="M20.1667 13.75H16.94L14.74 15.95H19.8L19.7634 19.8H10.9267L8.72668 22H20.1667C21.1934 22 22 21.1933 22 20.1667V15.5833C22 14.5933 21.1934 13.75 20.1667 13.75Z" fill="#B1B1B1"/>
</svg>
